<svg xmlns="http://www.w3.org/2000/svg" viewBox="0 0 64 64" role="img" aria-label="Signal noise favicon">
  <defs>
    <filter id="glow" x="-40%" y="-40%" width="180%" height="180%">
      <feGaussianBlur stdDeviation="1.7" result="blur"/>
      <feMerge>
        <feMergeNode in="blur"/>
        <feMergeNode in="SourceGraphic"/>
      </feMerge>
    </filter>
    <filter id="hard-shadow" x="-20%" y="-20%" width="140%" height="140%">
      <feDropShadow dx="1.5" dy="-1.5" stdDeviation="0" flood-color="#00FF88" flood-opacity=".95"/>
      <feDropShadow dx="-1.5" dy="1.5" stdDeviation="0" flood-color="#FF2D3D" flood-opacity=".95"/>
    </filter>
  </defs>
  <rect width="64" height="64" fill="#030604"/>
  <path d="M7 12h50v40H7z" fill="#070C09" stroke="#0A5F3C" stroke-width="2"/>
  <path d="M11 20h42M11 32h42M11 44h42" stroke="#0A5F3C" stroke-width="1" opacity=".48"/>
  <path d="M19 16v28M32 12v39M45 18v26" stroke="#5E1119" stroke-width="5" stroke-linecap="square"/>
  <path d="M19 23v14M32 24v16M45 25v10" stroke="#FF2D3D" stroke-width="9" stroke-linecap="square" filter="url(#glow)"/>
  <path d="M7 43L18 43L24 23L30 39L37 16L45 32L57 10" fill="none" stroke="#FF2D3D" stroke-width="8" stroke-linecap="square" stroke-linejoin="miter" opacity=".92"/>
  <path d="M7 43L18 43L24 23L30 39L37 16L45 32L57 10" fill="none" stroke="#00FF88" stroke-width="5" stroke-linecap="square" stroke-linejoin="miter" filter="url(#hard-shadow)"/>
  <path d="M5 51h22v4H5zM36 8h21v4H36zM42 52h15v4H42z" fill="#E4F2E9" opacity=".88"/>
  <path d="M6 6h15v4H6zM9 56h10v3H9zM47 5h8v3h-8z" fill="#00FF88"/>
  <path d="M24 6h9v3h-9zM31 55h7v3h-7zM53 46h6v4h-6z" fill="#FF2D3D"/>
</svg>
